<?xml version="1.0" encoding="utf-8"?>
<!-- Generator: Adobe Illustrator 26.1.0, SVG Export Plug-In . SVG Version: 6.00 Build 0)  -->
<svg version="1.1" id="Layer_1" xmlns="http://www.w3.org/2000/svg" xmlns:xlink="http://www.w3.org/1999/xlink" x="0px" y="0px"
	 viewBox="0 0 168.6 51.2" style="enable-background:new 0 0 168.6 51.2;" xml:space="preserve">
<style type="text/css">
	.st0{fill-rule:evenodd;clip-rule:evenodd;fill:#004587;}
	.st1{fill-rule:evenodd;clip-rule:evenodd;fill:url(#SVGID_1_);}
	.st2{fill-rule:evenodd;clip-rule:evenodd;fill:url(#SVGID_00000141414899154251173550000016013614520364741054_);}
	.st3{fill-rule:evenodd;clip-rule:evenodd;fill:url(#SVGID_00000145041275639197681520000016572618563159835287_);}
	.st4{fill-rule:evenodd;clip-rule:evenodd;fill:url(#SVGID_00000146480253708332917190000015020004003377032356_);}
	.st5{fill-rule:evenodd;clip-rule:evenodd;fill:url(#SVGID_00000065787589653239946610000014034993408761701522_);}
</style>
<g>
	<path class="st0" d="M7.6,1.7h6.5l-2.9,13.8c-0.3,1.2-0.4,2.5,0,3.5c0.6,1.3,2,1.9,3.5,1.9c4.1,0,5.3-3.3,5.8-5.6l2.9-13.5h6.3
		l-2.9,13.4c-0.5,2.6-1.5,5.4-3.3,7c-2.8,2.8-7.1,3.3-10,3.3c-10.9,0-9.5-6.8-8.7-10.6L7.6,1.7L7.6,1.7z M29.3,24.8h5.6l3.8-18
		l4.2,18h8.7l4.9-23.2h-5.6l-3.6,17.3L43,1.7h-8.8L29.3,24.8L29.3,24.8z M55.8,24.8h6.6l4.9-23.2h-6.6L55.8,24.8L55.8,24.8z
		 M66.7,24.8h5.7l3.8-18l4.2,18h8.7l4.9-23.2h-5.6l-3.6,17.3L80.5,1.7h-8.8L66.7,24.8L66.7,24.8z M95,13.3c0.3-1.5,1.6-6.2,5.1-9.1
		c3.6-3,8-3.2,9.7-3.2c9.2,0,10.3,6.6,9.1,12.3c-2,9.2-9.1,12.1-14.6,12.1C98.2,25.4,93.2,22,95,13.3L95,13.3z M101.6,13.3
		c-0.8,3.7-0.5,7.3,3.8,7.3c4.6,0,6.3-4.2,6.9-7.4c0.7-3.2,0.3-4.9-0.2-5.9c-0.7-1.3-2.1-1.7-3.5-1.7
		C104.4,5.7,102.4,9.3,101.6,13.3L101.6,13.3z M125.2,24.8h7.7l13.4-23.2h-6.4l-9.1,16.8L129,1.7h-7.1L125.2,24.8L125.2,24.8z
		 M143.9,24.8h17.6l1-4.5h-11.3l1.1-4.9h10.4l0.9-4.4h-10.4l1-4.8h11l0.9-4.4h-17.4L143.9,24.8L143.9,24.8z"/>
</g>
<radialGradient id="SVGID_1_" cx="10.461" cy="34.1721" r="10.0248" gradientTransform="matrix(1 0 0 -1 0 72)" gradientUnits="userSpaceOnUse">
	<stop  offset="0" style="stop-color:#E75236"/>
	<stop  offset="9.540000e-02" style="stop-color:#E64431"/>
	<stop  offset="0.33" style="stop-color:#E42627"/>
	<stop  offset="0.5618" style="stop-color:#E21120"/>
	<stop  offset="0.7874" style="stop-color:#E1041B"/>
	<stop  offset="1" style="stop-color:#E1001A"/>
</radialGradient>
<path class="st1" d="M14.6,32.2c6.8,0,12.2,3.8,12.2,8.5c0,4.5-5.4,8.3-12.2,8.3S2.4,45.2,2.4,40.7C2.4,36,7.8,32.2,14.6,32.2
	L14.6,32.2z"/>
<radialGradient id="SVGID_00000167354622381047567600000010177174435484801681_" cx="44.691" cy="34.1721" r="10.0248" gradientTransform="matrix(1 0 0 -1 0 72)" gradientUnits="userSpaceOnUse">
	<stop  offset="0" style="stop-color:#E75236"/>
	<stop  offset="9.540000e-02" style="stop-color:#E64431"/>
	<stop  offset="0.33" style="stop-color:#E42627"/>
	<stop  offset="0.5618" style="stop-color:#E21120"/>
	<stop  offset="0.7874" style="stop-color:#E1041B"/>
	<stop  offset="1" style="stop-color:#E1001A"/>
</radialGradient>
<path style="fill-rule:evenodd;clip-rule:evenodd;fill:url(#SVGID_00000167354622381047567600000010177174435484801681_);" d="
	M48.9,32.2c6.8,0,12.2,3.8,12.2,8.5c0,4.5-5.4,8.3-12.2,8.3s-12.2-3.8-12.2-8.3C36.7,36,42.1,32.2,48.9,32.2L48.9,32.2z"/>
<radialGradient id="SVGID_00000109734775013259945820000011094876276475264414_" cx="78.921" cy="34.1721" r="10.0248" gradientTransform="matrix(1 0 0 -1 0 72)" gradientUnits="userSpaceOnUse">
	<stop  offset="0" style="stop-color:#E75236"/>
	<stop  offset="9.540000e-02" style="stop-color:#E64431"/>
	<stop  offset="0.33" style="stop-color:#E42627"/>
	<stop  offset="0.5618" style="stop-color:#E21120"/>
	<stop  offset="0.7874" style="stop-color:#E1041B"/>
	<stop  offset="1" style="stop-color:#E1001A"/>
</radialGradient>
<path style="fill-rule:evenodd;clip-rule:evenodd;fill:url(#SVGID_00000109734775013259945820000011094876276475264414_);" d="
	M83.1,32.2c6.8,0,12.2,3.8,12.2,8.5c0,4.5-5.4,8.3-12.2,8.3s-12.2-3.8-12.2-8.3C70.9,36,76.3,32.2,83.1,32.2L83.1,32.2z"/>
<radialGradient id="SVGID_00000180362471507616287590000013046420634492063901_" cx="113.151" cy="34.1721" r="10.0248" gradientTransform="matrix(1 0 0 -1 0 72)" gradientUnits="userSpaceOnUse">
	<stop  offset="0" style="stop-color:#E75236"/>
	<stop  offset="9.540000e-02" style="stop-color:#E64431"/>
	<stop  offset="0.33" style="stop-color:#E42627"/>
	<stop  offset="0.5618" style="stop-color:#E21120"/>
	<stop  offset="0.7874" style="stop-color:#E1041B"/>
	<stop  offset="1" style="stop-color:#E1001A"/>
</radialGradient>
<path style="fill-rule:evenodd;clip-rule:evenodd;fill:url(#SVGID_00000180362471507616287590000013046420634492063901_);" d="
	M117.3,32.2c6.8,0,12.2,3.8,12.2,8.5c0,4.5-5.4,8.3-12.2,8.3s-12.2-3.8-12.2-8.3C105.1,36,110.5,32.2,117.3,32.2L117.3,32.2z"/>
<radialGradient id="SVGID_00000035494011598825556920000005603982200981439629_" cx="147.381" cy="34.1721" r="10.0248" gradientTransform="matrix(1 0 0 -1 0 72)" gradientUnits="userSpaceOnUse">
	<stop  offset="0" style="stop-color:#E75236"/>
	<stop  offset="9.540000e-02" style="stop-color:#E64431"/>
	<stop  offset="0.33" style="stop-color:#E42627"/>
	<stop  offset="0.5618" style="stop-color:#E21120"/>
	<stop  offset="0.7874" style="stop-color:#E1041B"/>
	<stop  offset="1" style="stop-color:#E1001A"/>
</radialGradient>
<path style="fill-rule:evenodd;clip-rule:evenodd;fill:url(#SVGID_00000035494011598825556920000005603982200981439629_);" d="
	M151.6,32.2c6.8,0,12.2,3.8,12.2,8.5c0,4.5-5.4,8.3-12.2,8.3c-6.8,0-12.2-3.8-12.2-8.3C139.4,36,144.8,32.2,151.6,32.2L151.6,32.2z"
	/>
</svg>
